<?xml version="1.0" encoding="UTF-8" standalone="no"?>
<!-- Created with Inkscape (http://www.inkscape.org/) -->
<svg xmlns:dc="http://purl.org/dc/elements/1.1/" xmlns:cc="http://creativecommons.org/ns#" xmlns:rdf="http://www.w3.org/1999/02/22-rdf-syntax-ns#" xmlns:svg="http://www.w3.org/2000/svg" xmlns="http://www.w3.org/2000/svg" xmlns:sodipodi="http://sodipodi.sourceforge.net/DTD/sodipodi-0.dtd" xmlns:inkscape="http://www.inkscape.org/namespaces/inkscape" width="166.42859" height="166.42859" id="svg2" version="1.1" inkscape:version="0.48.4 r9939" sodipodi:docname="example.svg">
  <defs id="defs4">
    <filter inkscape:collect="always" id="filter3773" color-interpolation-filters="sRGB">
      <feGaussianBlur inkscape:collect="always" stdDeviation="3.8840456" id="feGaussianBlur3775"/>
    </filter>
  </defs>
  <sodipodi:namedview id="base" pagecolor="#ffffff" bordercolor="#666666" borderopacity="1.0" inkscape:pageopacity="0.0" inkscape:pageshadow="2" inkscape:zoom="0.7" inkscape:cx="-201.78571" inkscape:cy="-137.50001" inkscape:document-units="px" inkscape:current-layer="layer1" showgrid="false" fit-margin-top="0" fit-margin-left="0" fit-margin-right="0" fit-margin-bottom="0" inkscape:window-width="1344" inkscape:window-height="864" inkscape:window-x="189" inkscape:window-y="107" inkscape:window-maximized="0"/>
  <metadata id="metadata7">
    <rdf:RDF>
      <cc:Work rdf:about="">
        <dc:format>image/svg+xml</dc:format>
        <dc:type rdf:resource="http://purl.org/dc/dcmitype/StillImage"/>
        <dc:title/>
      </cc:Work>
    </rdf:RDF>
  </metadata>
  <g inkscape:label="Layer 1" inkscape:groupmode="layer" id="layer1" transform="translate(-143.21428,-239.86217)">
    <path sodipodi:type="arc" style="opacity:0.75;color:#000000;fill:#8eff67;fill-opacity:1;fill-rule:nonzero;stroke:#ff0000;stroke-width:5;stroke-linecap:round;stroke-linejoin:miter;stroke-miterlimit:4;stroke-opacity:1;stroke-dasharray:none;stroke-dashoffset:0;marker:none;visibility:visible;display:inline;overflow:visible;enable-background:accumulate" id="path2991" sodipodi:cx="300" sodipodi:cy="396.64789" sodipodi:rx="154.28572" sodipodi:ry="154.28572" d="m 454.28572,396.64789 c 0,85.20965 -69.07607,154.28572 -154.28572,154.28572 -85.20965,0 -154.28572,-69.07607 -154.28572,-154.28572 0,-85.20965 69.07607,-154.28572 154.28572,-154.28572 85.20965,0 154.28572,69.07607 154.28572,154.28572 z" transform="matrix(0.53075173,0,0,0.53075173,67.203053,112.55491)"/>
    <text xml:space="preserve" style="font-size:126.80552673px;font-style:normal;font-variant:normal;font-weight:bold;font-stretch:normal;text-align:end;line-height:125%;letter-spacing:0px;word-spacing:0px;writing-mode:lr-tb;text-anchor:end;fill:#000000;fill-opacity:1;stroke:none;font-family:Open Sans;-inkscape-font-specification:Open Sans Bold" x="265.52902" y="371.03098" id="text2985" sodipodi:linespacing="125%"><tspan sodipodi:role="line" id="tspan2989" x="265.52902" y="371.03098">λ</tspan></text>
    <g style="font-size:238.9168396px;font-style:normal;font-variant:normal;font-weight:bold;font-stretch:normal;text-align:end;line-height:125%;letter-spacing:0px;word-spacing:0px;writing-mode:lr-tb;text-anchor:end;fill:#000000;fill-opacity:1;stroke:none;filter:url(#filter3773);font-family:Open Sans;-inkscape-font-specification:Open Sans Bold" id="text2993" transform="matrix(0.53075173,0,0,0.53075173,67.203053,112.55491)">
      <path d="m 231.61334,490.99997 55.17952,-123.30815 -4.08305,-10.7326 c -2.79986,-6.99937 -5.98852,-11.93792 -9.56601,-14.81564 -3.57757,-2.87743 -9.06051,-4.31622 -16.44886,-4.31637 -3.88864,1.5e-4 -7.85503,0.50567 -11.89918,1.51656 l 0,-29.39797 c 6.144,-1.32195 12.59911,-1.98301 19.36533,-1.98319 8.94379,1.8e-4 16.56547,1.36119 22.86509,4.08305 6.37727,2.72221 11.78245,6.9608 16.21555,12.71579 4.51072,5.67754 8.74931,14.03807 12.71579,25.0816 l 32.78107,90.06045 c 2.87745,8.08837 5.79392,14.03795 8.74939,17.84876 2.95522,3.81088 6.57164,5.7163 10.84925,5.71628 2.56635,2e-5 5.2495,-0.38884 8.04945,-1.16659 l 0,27.53143 c -1.78891,0.93327 -4.89981,1.74988 -9.33269,2.44983 -4.43316,0.69995 -8.16623,1.04993 -11.19923,1.04993 -8.55508,0 -15.55459,-2.09985 -20.99855,-6.29956 -5.44417,-4.19971 -9.76053,-10.92701 -12.94911,-20.18194 -8.86613,-25.12044 -14.15465,-40.24716 -15.86557,-45.3802 -1.63329,-5.21068 -2.95542,-9.83813 -3.96639,-13.88238 l -0.69995,0 c -3.5776,11.97702 -6.53295,20.92084 -8.86606,26.83148 l -24.03167,56.57943 -36.86412,0" id="path2990" inkscape:connector-curvature="0"/>
    </g>
  </g>
</svg>
